PathFileType	4	(X/Y/Z)	/Users/niels/Desktop/University/Third Semester/Perception and Action/Exam/Gymnastics Motion Tracking/Code for Gym Tracking/Analyzed Data/Webcam_Backflip/id5_1_baseline_Sports2D/id5_1_baseline_Sports2D_px_person00.trc
DataRate	CameraRate	NumFrames	NumMarkers	Units	OrigDataRate	OrigDataStartFrame	OrigNumFrames
29.80392156862745	29.80392156862745	11	22	m	29.80392156862745	57	153
Frame#	Time	Hip			RHip			RKnee			RAnkle			RBigToe			RSmallToe			RHeel			LHip			LKnee			LAnkle			LBigToe			LSmallToe			LHeel			Neck			Head			Nose			RShoulder			RElbow			RWrist			LShoulder			LElbow			LWrist		
		X1	Y1	Z1	X2	Y2	Z2	X3	Y3	Z3	X4	Y4	Z4	X5	Y5	Z5	X6	Y6	Z6	X7	Y7	Z7	X8	Y8	Z8	X9	Y9	Z9	X10	Y10	Z10	X11	Y11	Z11	X12	Y12	Z12	X13	Y13	Z13	X14	Y14	Z14	X15	Y15	Z15	X16	Y16	Z16	X17	Y17	Z17	X18	Y18	Z18	X19	Y19	Z19	X20	Y20	Z20	X21	Y21	Z21	X22	Y22	Z22
57	1.9125	0.9904630494144191	-0.39548964522946967	0.0	0.9942289229780314	-0.39367926575351136	0.0	0.9915642877422318	-0.2996205899353488	0.0	1.0747383130616615	-0.32013935821011497	0.0	1.0895021250266619	-0.28168815835664407	0.0	1.0956749295456332	-0.28904260971849965	0.0	1.0820572905094337	-0.32985633931893643	0.0	0.9804606601565601	-0.39439415266882466	0.0	0.9800171608745072	-0.30319576918653607	0.0	1.0641256743720233	-0.31668125856287305	0.0	1.073281313984835	-0.2847615756672014	0.0	1.0764046806842777	-0.28715667278167933	0.0	1.0776435880283088	-0.32702060261471605	0.0	0.8654027380252207	-0.37893178533886973	0.0	0.8054466792702583	-0.3790171802152327	0.0	0.8350137990516131	-0.35472095565773887	0.0	0.8809595816209299	-0.3677552621216582	0.0	0.9504500135753369	-0.340236989450283	0.0	0.9814079052407193	-0.2910385309217548	0.0	0.8708171831222866	-0.3847653297317849	0.0	0.9255623331173495	-0.35970072284510873	0.0	0.9660722009454242	-0.3276896310346732	0.0
58	1.9460526315789475	0.9956180665647512	-0.3800626931427237	0.0	0.9980137308383531	-0.3776103854318236	0.0	0.9597842272256901	-0.29260957584871206	0.0	1.0474990018597434	-0.2798933769264288	0.0	1.0483244552781368	-0.23700513419427102	0.0	1.0567442462905956	-0.24251045909241442	0.0	1.0565755054178232	-0.28513224481283206	0.0	0.9848496131650482	-0.3789524296465399	0.0	0.952284680222455	-0.29547641627594046	0.0	1.039023891970219	-0.27889772177805366	0.0	1.0338489031369043	-0.2412739953723763	0.0	1.0398691033210858	-0.2434803312842794	0.0	1.0553773721367388	-0.2819374978188878	0.0	0.8763366615091949	-0.3986383492956551	0.0	0.8212825243735812	-0.4127577785830744	0.0	0.8426129208754056	-0.3838817470044348	0.0	0.8914108762821994	-0.38348662777721854	0.0	0.9509571654600949	-0.3392990311311055	0.0	0.9680851389814882	-0.292545088854629	0.0	0.884271805920972	-0.4013020676665432	0.0	0.9293798573343776	-0.3684713254524106	0.0	0.9692047917630379	-0.34327844326924556	0.0
59	1.9796052631578946	0.9981681650426232	-0.36423510764289835	0.0	0.9982420312383735	-0.3615393948714003	0.0	0.9300875448196395	-0.2972344678864752	0.0	1.0096700579516424	-0.25451868442957115	0.0	0.9956790876200748	-0.21416449187146053	0.0	1.0055133071316222	-0.2169885016998864	0.0	1.018525072135468	-0.25477836826847167	0.0	0.9886832595040126	-0.3636883872817205	0.0	0.9286451472387702	-0.2992680761943337	0.0	1.0054142687753036	-0.25592805974770066	0.0	0.9837324439696241	-0.21924829982776212	0.0	0.9929337899503273	-0.22092604321055442	0.0	1.0214287435465788	-0.2513687739666922	0.0	0.8938488625752334	-0.4194398968050868	0.0	0.8466011174066074	-0.44708802948390214	0.0	0.858283543310223	-0.41598184992556747	0.0	0.9057287363421584	-0.40092748402253037	0.0	0.9487687058504064	-0.3419658235159751	0.0	0.9494372923158413	-0.2998190320845985	0.0	0.9052371103155358	-0.41843543770466435	0.0	0.9377778023290075	-0.3792055222745381	0.0	0.9773660061642652	-0.3653027359862881	0.0
60	2.013157894736842	0.9970062457859876	-0.3501660778928845	0.0	0.9942516108942038	-0.34794935465757065	0.0	0.9054037523330065	-0.31205852949695123	0.0	0.9646567757839789	-0.24656012794509402	0.0	0.9381520605772476	-0.21552512592862821	0.0	0.9480994775479336	-0.2153532585243055	0.0	0.971421756777837	-0.2418558720522366	0.0	0.9906630912980968	-0.3507861157731767	0.0	0.9103969972272097	-0.31306066447646047	0.0	0.96529727638993	-0.24959376045544862	0.0	0.9284029758414667	-0.22113667958986322	0.0	0.9403145921207728	-0.22174601257182577	0.0	0.9783202888467951	-0.2382188716239367	0.0	0.9173454416710061	-0.43863389785962764	0.0	0.8807677381201935	-0.4779107687559199	0.0	0.8826959643005647	-0.44760900041163815	0.0	0.9235125728907341	-0.4179847116911872	0.0	0.9455111846968227	-0.34922186420813256	0.0	0.9302156820000121	-0.3146675313982936	0.0	0.932370123565779	-0.4342288568692989	0.0	0.9519191442604081	-0.39104239537967006	0.0	0.992029374846055	-0.39329637494556025	0.0
61	2.0467105263157896	0.991879340705409	-0.34012285065683684	0.0	0.9863644963219653	-0.339174516566151	0.0	0.8873863457204095	-0.3351445743598927	0.0	0.9167292320188571	-0.25748152889320974	0.0	0.8826396876378527	-0.24140869359711672	0.0	0.8910553010828325	-0.23836238738235804	0.0	0.9198872070158965	-0.24824821974545344	0.0	0.9894900858641331	-0.3420604652296974	0.0	0.8971792520892561	-0.3344987991551571	0.0	0.9215418405819308	-0.26084531211110573	0.0	0.8746257665922031	-0.24663028737391207	0.0	0.8879336183094315	-0.24563247450913347	0.0	0.9297377276258706	-0.24416113487471555	0.0	0.9448035332951741	-0.45378702168481116	0.0	0.9214919940500721	-0.5017886184189978	0.0	0.914760290998901	-0.4751448932645769	0.0	0.9438879673646183	-0.43278329793197007	0.0	0.943126466203882	-0.3615796911628435	0.0	0.9149239428272882	-0.3375658947880814	0.0	0.962383324832828	-0.4467266021490209	0.0	0.971497242792034	-0.40379510642694894	0.0	1.0121241704732742	-0.4236225809029024	0.0
62	2.080263157894737	0.9831189365980336	-0.3358210203642828	0.0	0.9754161304312207	-0.3365842963274702	0.0	0.8762501500903831	-0.36421044767132127	0.0	0.8709141948825629	-0.2874208757230991	0.0	0.8353768825577595	-0.28982954883546064	0.0	0.8407272078547082	-0.28429523447484795	0.0	0.8693915176226334	-0.2746961655502952	0.0	0.9842207296879163	-0.3387809122516557	0.0	0.8878500374273013	-0.3612209020728352	0.0	0.8782503592932562	-0.2896713502394926	0.0	0.8288757372214426	-0.2927615079540917	0.0	0.8419549604469906	-0.2899711820348347	0.0	0.8805790050134461	-0.2697697907669629	0.0	0.9731716250914031	-0.46355780143007164	0.0	0.9650829733165621	-0.5169841050414242	0.0	0.9513881941290067	-0.495679674959976	0.0	0.9655916685517839	-0.44406636466223837	0.0	0.9432550741606778	-0.3790976810405006	0.0	0.9069876883884646	-0.36814473630076167	0.0	0.991172673483112	-0.4546978486169401	0.0	0.9942905548717397	-0.41813584684209426	0.0	1.0348483823324381	-0.45111298118425325	0.0
63	2.1138157894736844	0.9714614184692142	-0.33837721369184826	0.0	0.9624245676012568	-0.340653810895345	0.0	0.8711152895587907	-0.39708720979805495	0.0	0.8326621481118016	-0.3348355151870554	0.0	0.8017013008198537	-0.35614406901463774	0.0	0.8031163517140977	-0.3488060820600218	0.0	0.825921315577424	-0.3204931201398413	0.0	0.9747633969800723	-0.3418871914435398	0.0	0.8814263109536491	-0.3916052700907396	0.0	0.8403018860066824	-0.3346594754124016	0.0	0.7961601750779237	-0.3547438523963136	0.0	0.8076675507581055	-0.35045982034999135	0.0	0.8365444671094707	-0.3142350032690219	0.0	0.9992410354933459	-0.46805636364500164	0.0	1.0072443298957634	-0.5238015948583267	0.0	0.9881121543482162	-0.507776652656411	0.0	0.9869968361263364	-0.4514363903503121	0.0	0.9467407697027118	-0.40134522918872634	0.0	0.9082141828760549	-0.4056537700610944	0.0	1.0153667540646583	-0.45803463915697346	0.0	1.0162057146192223	-0.4341082989568734	0.0	1.0561562339586712	-0.47158754183375684	0.0
64	2.1473684210526316	0.9580484623791515	-0.34859002502946035	0.0	0.9486545125434215	-0.3516967146513861	0.0	0.8704811646632732	-0.4322219280189127	0.0	0.8067782682001919	-0.3963883283986815	0.0	0.7852362528716224	-0.4333311676933395	0.0	0.7827798999984293	-0.4253412545549602	0.0	0.7949883161515482	-0.382940941972265	0.0	0.962028698757806	-0.35204041175394885	0.0	0.8771312951969137	-0.4247443326102407	0.0	0.8119287581992063	-0.39255779776129957	0.0	0.778995646397436	-0.42650045591734403	0.0	0.7880300026165477	-0.42128979285202434	0.0	0.8027659886026974	-0.3745942585016152	0.0	1.0203927753511277	-0.4687075117686824	0.0	1.0440436146144274	-0.5242190272483997	0.0	1.0203073968661716	-0.5120257980642617	0.0	1.0061901772267994	-0.45566947156942067	0.0	0.9534916693054721	-0.427320106019346	0.0	0.9187819101974256	-0.4483613695319557	0.0	1.0330425690685645	-0.4577592659747799	0.0	1.0324656098139673	-0.4499742768263474	0.0	1.0711136646826978	-0.48414828979469643	0.0
65	2.1809210526315788	0.9441689307498979	-0.3670128619055848	0.0	0.9355290284515533	-0.37027358109373315	0.0	0.8727417257748312	-0.4690886216251339	0.0	0.7958492402168857	-0.4672636661875232	0.0	0.7864740592484852	-0.5135686991894927	0.0	0.7809681538615082	-0.5064079147495042	0.0	0.7799830353175707	-0.45721824403626343	0.0	0.9474689807153855	-0.3695657861975366	0.0	0.8740934419354814	-0.4601672911256185	0.0	0.7953298819104639	-0.4585114074074722	0.0	0.7768961623946614	-0.5013184111872826	0.0	0.7827842895840564	-0.4957362664165991	0.0	0.7822274405234575	-0.4455221719818389	0.0	1.0349850323619192	-0.4678098809362954	0.0	1.0726896001185457	-0.5209596207063647	0.0	1.0446347435083319	-0.5110802395622374	0.0	1.021302666248541	-0.4587068914024721	0.0	0.9628125700302944	-0.45548838153947974	0.0	0.9380886751617993	-0.4924589783939593	0.0	1.0435400209850842	-0.45575340188277935	0.0	1.0394849132879007	-0.46391539547886224	0.0	1.075268798992481	-0.49191358302336197	0.0
66	2.2144736842105264	0.9308018557322243	-0.39370845611323385	0.0	0.9240779895426433	-0.39679178109834995	0.0	0.8767113943483966	-0.508115292477378	0.0	0.7992006903150985	-0.5418797517071218	0.0	0.8023600005556875	-0.5904467326007862	0.0	0.7948689382578304	-0.5853600815972151	0.0	0.7808603175788654	-0.5369960586194824	0.0	0.9325064641866819	-0.39457026801882156	0.0	0.8718163031350165	-0.4979858129753498	0.0	0.7905372248584225	-0.527391846460546	0.0	0.7871889805685393	-0.5736061260067858	0.0	0.7893121337683995	-0.5679728723995526	0.0	0.7753242248024904	-0.5207166737960216	0.0	1.0424626666667658	-0.46791037247293615	0.0	1.0919098616592822	-0.5163543087561129	0.0	1.0599201672055583	-0.5086048445748271	0.0	1.0308983526847884	-0.4628607252168405	0.0	0.9736844959136988	-0.484080905073617	0.0	0.9646647767663603	-0.5325644197698081	0.0	1.04701263210139	-0.4543566997893857	0.0	1.0363948356367825	-0.4765535337793144	0.0	1.0675132438260353	-0.49992418381166176	0.0
67	2.2480263157894735	0.9185557657316811	-0.4280261906324991	0.0	0.9146083893345971	-0.4309289898890268	0.0	0.8818235033392237	-0.5498694491632616	0.0	0.813046228928385	-0.6149133466585549	0.0	0.8273301879710909	-0.6602173927356031	0.0	0.8186685090510295	-0.6576939699471724	0.0	0.7940329545784074	-0.6156621641348854	0.0	0.9183358693546292	-0.42699065529941477	0.0	0.8708014942672572	-0.5388210415351096	0.0	0.79612335464232	-0.5953133014278197	0.0	0.806397800494584	-0.6403406873113123	0.0	0.8043496691342783	-0.6344625401764915	0.0	0.7804231618656053	-0.5949263316803981	0.0	1.0432432726435932	-0.4712681418502852	0.0	1.1018023290836145	-0.5119645923034775	0.0	1.066896431276229	-0.5078212155849074	0.0	1.0342671388464946	-0.47003769412467006	0.0	0.9844883854994021	-0.5116305799634707	0.0	0.9947271304629095	-0.5643066553898565	0.0	1.0441255605644657	-0.4560175978872681	0.0	1.0257274458696992	-0.4907904920441135	0.0	1.0521370779588306	-0.5122394442586069	0.0
